<svg width="1200" height="1600" viewBox="0 0 1200 1600" fill="none" xmlns="http://www.w3.org/2000/svg">
  <defs>
    <linearGradient id="bg" x1="0" y1="0" x2="1" y2="1">
      <stop offset="0%" stop-color="#0a0a0f"/>
      <stop offset="100%" stop-color="#121218"/>
    </linearGradient>
    <linearGradient id="accent" x1="0" y1="0" x2="1" y2="1">
      <stop offset="0%" stop-color="#6366f1"/>
      <stop offset="100%" stop-color="#a855f7"/>
    </linearGradient>
  </defs>
  <rect width="1200" height="1600" fill="url(#bg)"/>
  <!-- Subtle grid / precision pattern -->
  <g opacity="0.07">
    <path d="M0 200h1200M0 400h1200M0 600h1200M0 800h1200M0 1000h1200M0 1200h1200M0 1400h1200" stroke="#fff" stroke-width="1"/>
    <path d="M200 0v1600M400 0v1600M600 0v1600M800 0v1600M1000 0v1600" stroke="#fff" stroke-width="1"/>
  </g>
  <!-- Central geometric 3D form -->
  <g transform="translate(600 780)">
    <rect x="-180" y="-220" width="360" height="440" rx="12" fill="none" stroke="url(#accent)" stroke-width="18" opacity="0.9"/>
    <rect x="-140" y="-170" width="280" height="340" rx="8" fill="none" stroke="#a855f7" stroke-width="9" opacity="0.6"/>
    <!-- Isometric hint lines -->
    <path d="M-180 -220 L-80 -320 L260 -320 L360 -220" stroke="#6366f1" stroke-width="7" opacity="0.5"/>
  </g>
  <!-- Title block -->
  <text x="600" y="420" text-anchor="middle" fill="#f1f1f5" font-family="Inter, system-ui, sans-serif" font-size="42" font-weight="700" letter-spacing="-2">CANVA TO 3D</text>
  <text x="600" y="470" text-anchor="middle" fill="#a1a1aa" font-family="Inter, system-ui, sans-serif" font-size="21" font-weight="500" letter-spacing="3">PRODUCT MOCKUPS</text>
  <rect x="420" y="510" width="360" height="2" fill="url(#accent)" rx="1"/>
  <text x="600" y="1380" text-anchor="middle" fill="#71717a" font-family="monospace" font-size="15" letter-spacing="4">FREE GUIDE • 22 MINUTES</text>
</svg>