<svg xmlns="http://www.w3.org/2000/svg" viewBox="0 0 600 450" role="img" aria-label="ADHD-friendly nutrition basics">
  <rect width="600" height="450" fill="#0e0e11"/>
  <g stroke="#1c1c21" stroke-width="1"><path d="M0 112H600M0 224H600M0 336H600"/></g>
  <text x="48" y="70" fill="#71717a" font-family="monospace" font-size="15" letter-spacing="4">FUEL · FOCUS</text>
  <!-- plate -->
  <circle cx="300" cy="222" r="118" fill="#131316" stroke="#26262c" stroke-width="2"/>
  <circle cx="300" cy="222" r="92" fill="none" stroke="#26262c" stroke-width="1.5"/>
  <!-- segments -->
  <path d="M300 222 L300 130 A92 92 0 0 1 380 268 Z" fill="#c7f73e" opacity="0.92"/>
  <path d="M300 222 L380 268 A92 92 0 0 1 224 282 Z" fill="#a78bfa" opacity="0.55"/>
  <path d="M300 222 L224 282 A92 92 0 0 1 300 130 Z" fill="#38bdf8" opacity="0.45"/>
  <!-- fork & knife -->
  <g stroke="#71717a" stroke-width="4" stroke-linecap="round">
    <path d="M150 150 V300"/><path d="M138 150 V184"/><path d="M150 150 V184"/><path d="M162 150 V184"/>
    <path d="M450 150 V300"/><path d="M450 150 C470 160 470 196 450 206"/>
  </g>
  <text x="48" y="406" fill="#a1a1aa" font-family="sans-serif" font-size="26" font-weight="700">ADHD &amp; Nutrition Basics</text>
</svg>
