<svg xmlns="http://www.w3.org/2000/svg" viewBox="0 0 1200 630" role="img" aria-label="How to stick with a habit tracker">
  <rect width="1200" height="630" fill="#0e0e11"/>
  <g stroke="#1c1c21" stroke-width="1"><path d="M0 158H1200M0 472H1200"/></g>
  <text x="80" y="120" fill="#c7f73e" font-family="monospace" font-size="22" letter-spacing="6">ORGANIZATION · YKS</text>
  <text x="80" y="300" fill="#f4f4f5" font-family="sans-serif" font-size="64" font-weight="700">How to actually stick</text>
  <text x="80" y="372" fill="#f4f4f5" font-family="sans-serif" font-size="64" font-weight="700">with a habit tracker</text>
  <!-- check chain -->
  <g transform="translate(80,430)">
    <g transform="translate(0,0)"><rect width="50" height="50" rx="12" fill="#c7f73e"/><path d="M16 25l8 8 14-16" stroke="#0e0e11" stroke-width="5" fill="none" stroke-linecap="round" stroke-linejoin="round"/></g>
    <g transform="translate(66,0)"><rect width="50" height="50" rx="12" fill="#c7f73e"/><path d="M16 25l8 8 14-16" stroke="#0e0e11" stroke-width="5" fill="none" stroke-linecap="round" stroke-linejoin="round"/></g>
    <g transform="translate(132,0)"><rect width="50" height="50" rx="12" fill="#c7f73e"/><path d="M16 25l8 8 14-16" stroke="#0e0e11" stroke-width="5" fill="none" stroke-linecap="round" stroke-linejoin="round"/></g>
    <rect x="198" width="50" height="50" rx="12" fill="none" stroke="#2e2e33" stroke-width="2"/>
    <g transform="translate(264,0)"><rect width="50" height="50" rx="12" fill="#84cc16"/><path d="M16 25l8 8 14-16" stroke="#0e0e11" stroke-width="5" fill="none" stroke-linecap="round" stroke-linejoin="round"/></g>
    <rect x="330" width="50" height="50" rx="12" fill="none" stroke="#2e2e33" stroke-width="2"/>
  </g>
</svg>
